<svg width="60" height="66" viewBox="0 0 60 66" fill="none" xmlns="http://www.w3.org/2000/svg">
<path d="M7.5 65.625C5.4375 65.625 3.67125 64.89 2.20126 63.42C0.731256 61.95 -0.00249363 60.185 6.36672e-06 58.125V24.375C6.36672e-06 23.1875 0.266256 22.0625 0.798755 21C1.33126 19.9375 2.06501 19.0625 3.00001 18.375L25.5 1.5C26.1875 1 26.9062 0.624999 27.6562 0.375C28.4062 0.125 29.1875 0 30 0C30.8125 0 31.5937 0.125 32.3437 0.375C33.0937 0.624999 33.8125 1 34.5 1.5L57 18.375C57.9375 19.0625 58.6725 19.9375 59.205 21C59.7375 22.0625 60.0025 23.1875 60 24.375V58.125C60 60.1875 59.265 61.9537 57.795 63.4237C56.325 64.8937 54.56 65.6275 52.5 65.625H37.5V39.375H22.5V65.625H7.5Z" fill="white"/>
</svg>
