<svg width="60" height="67" viewBox="0 0 60 67" fill="none" xmlns="http://www.w3.org/2000/svg">
<path d="M0 16.6667V10H6.66667V6.66667C6.66667 4.89856 7.36905 3.20286 8.61929 1.95262C9.86953 0.702379 11.5652 0 13.3333 0H33.3333V23.3333L41.6667 18.3333L50 23.3333V0H53.3333C56.8333 0 60 3.16667 60 6.66667V60C60 63.5 56.8333 66.6667 53.3333 66.6667H13.3333C9.83333 66.6667 6.66667 63.5 6.66667 60V56.6667H0V50H6.66667V36.6667H0V30H6.66667V16.6667H0ZM13.3333 30H6.66667V36.6667H13.3333V30ZM13.3333 16.6667V10H6.66667V16.6667H13.3333ZM13.3333 56.6667V50H6.66667V56.6667H13.3333Z" fill="white"/>
</svg>
