<svg width="560" height="584" viewBox="0 0 560 584" fill="none" xmlns="http://www.w3.org/2000/svg">
<g clip-path="url(#clip0_87_364)">
<path d="M560 0H0V584H560V0Z" fill="white"/>
<path fill-rule="evenodd" clip-rule="evenodd" d="M318.147 484.161C372.227 484.161 419.686 442.209 393.033 385.227C366.38 328.246 465.412 330.087 494.503 290.704C529.98 242.677 519.705 38.806 291.956 163.096C255.474 183.005 161.779 142.613 130.7 162.655C94.1159 186.246 42.6455 234.554 94.1159 284.037C119.47 308.412 28.5715 371.678 68.3831 428.348C107.229 483.643 134.46 430.931 193.602 442.21C252.744 453.488 277.982 484.161 318.147 484.161Z" fill="#F8B200"/>
<path d="M255.376 385.03C255.376 385.03 267.828 378.922 272.477 374.672C277.125 370.422 282.905 359.864 282.905 359.864C282.905 359.864 346.389 407.676 387.783 400.856C397.32 399.285 415.904 392.674 417.089 381.025C420.325 349.217 375.552 341.089 385.332 324.959C391.302 315.113 409.847 329.767 409.847 329.767L486.767 369.223C486.767 369.223 460.193 437.536 395.705 440.273C316.376 443.641 255.376 385.03 255.376 385.03Z" fill="white"/>
<path fill-rule="evenodd" clip-rule="evenodd" d="M194.391 117.505C193.669 117.21 189.792 112.259 184.87 111.358C182.633 110.948 184.663 113.918 182.202 113.945C174.87 114.025 162.956 112.588 160.748 113.945C159.108 114.951 162.72 118.462 160.748 118.623C142.14 120.144 113.752 139.52 107.593 148.92C105.633 151.912 121.486 146.836 118.96 148.315C116.125 149.975 112.98 160.844 111.101 169.238C109.8 175.019 108.98 182.459 108.691 190.552C108.45 197.539 108.546 198.695 109.51 202.516C110.619 206.788 111.486 208.045 112.98 207.441C113.511 207.241 113.752 206.487 113.752 205.079C113.752 203.973 114.33 200.655 115.053 197.689L116.307 192.362L116.837 194.573C117.512 197.137 121.464 205.079 125.031 210.86C125.224 211.167 126.051 210.776 126.798 208.895C127.478 207.181 127.201 204.442 128.357 201.506C130.989 194.82 136.156 186.127 142.14 179.168C150.984 168.884 153.917 156.981 162.207 147.427C177.678 129.597 197.093 118.612 194.391 117.505Z" fill="white"/>
<path fill-rule="evenodd" clip-rule="evenodd" d="M119.18 150.74C116.698 152.822 113.014 169.702 112.951 169.984C111.65 175.764 110.395 195.839 111.677 199.639C112.96 203.44 116.55 189.74 116.55 189.74C116.55 189.74 121.978 204.437 126.774 208.466C126.978 208.638 121.073 190.283 119.18 179.568C116.68 165.423 120.592 149.556 119.18 150.74Z" fill="#E7EAEE"/>
<path fill-rule="evenodd" clip-rule="evenodd" d="M211.677 446.372C216.304 445.316 224.112 441.64 227.102 440.383C230.091 439.126 239.2 425.713 242.478 410.582C244.84 399.423 246.045 383.538 244.695 380.874C244.495 380.496 243.767 373.273 245.707 375.632C250.021 380.874 255.143 389.104 271.301 374.356C275.703 370.339 281.536 365.156 280 360.573C275.703 347.749 257.074 321.929 254.234 319.973C250.838 317.634 233.676 319.622 208.135 311.759C179.169 302.844 167.108 276.59 155.773 280.008C146.606 282.771 124.643 299.756 119.131 310.511C93.1079 361.29 124.643 396.87 131.824 407.089L138.797 410.23L139.038 416.714L139.375 420.786C140.002 428.577 140.243 429.281 143.617 431.895C152.052 438.581 168.682 444.813 183.72 447.026C190.71 448.031 205.893 447.679 211.677 446.372Z" fill="white"/>
<path fill-rule="evenodd" clip-rule="evenodd" d="M141.539 414.341L141.876 418.412C142.504 426.204 142.744 426.907 146.118 429.521C151.095 433.465 158.923 437.252 167.593 440.148C173.62 442.161 180.055 443.744 186.222 444.651C193.211 445.657 208.394 445.305 214.178 443.998C217.037 443.352 193.52 424.084 179.666 429.521C169.027 433.696 143.951 401.85 154.146 393.53C165.584 384.196 144.626 347.383 143.951 339.391C143.276 331.399 140.618 329.49 140.541 329.77C140.463 330.05 140.463 331.007 140.671 333.311C141.571 343.241 141.539 414.341 141.539 414.341Z" fill="#E7EAEE"/>
<path fill-rule="evenodd" clip-rule="evenodd" d="M139.029 337.11C140.04 336.905 141.02 337.594 141.217 338.65C144.855 358.14 160.243 371.335 187.758 378.236C215.438 385.177 234.292 384.802 244.226 377.393C245.064 376.768 244.439 382.124 243.825 382.535C237.346 386.867 215.317 393.333 189.028 387.489C155.416 380.018 139.633 350.543 137.553 339.394C137.356 338.338 138.016 337.316 139.029 337.11Z" fill="#377DC3"/>
<path fill-rule="evenodd" clip-rule="evenodd" d="M125.011 301.943C125.907 301.409 159.291 341.31 205.106 350.342C250.922 359.373 262.014 353.63 263.797 341.31C263.951 340.247 264.902 339.515 265.922 339.675C266.942 339.836 267.643 340.828 267.489 341.891C265.229 357.505 244.029 361.218 204.478 354.18C165.424 347.23 138.649 330.718 124.319 304.599C123.806 303.666 124.117 302.476 125.011 301.943Z" fill="#377DC3"/>
<path fill-rule="evenodd" clip-rule="evenodd" d="M317.306 299.731C316.052 299.279 314.703 298.274 313.835 297.117L312.389 295.257L317.498 289.979C325.356 281.936 331.38 273.693 336.586 263.891C338.321 260.624 342.707 249.715 342.707 248.66C342.707 248.308 343.238 246.9 343.865 245.443C344.829 243.332 345.551 242.527 347.624 241.321C350.082 239.813 352.878 239.311 354.083 240.165C356.397 241.774 356.397 246.851 354.083 255.597C351.528 265.197 348.106 272.084 341.021 281.987C339.912 283.495 337.839 286.461 336.345 288.522C332.344 294.051 329.741 296.715 326.223 298.776C322.753 300.786 320.728 301.038 317.306 299.731ZM351.914 295.207L355.384 296.816C356.104 297.162 364.043 301.14 373.579 305.919C388.954 313.623 408.48 323.407 408.598 323.407C408.792 323.407 409.696 321.226 409.9 318.682C410.382 313.203 412.165 305.763 414.238 300.586C415.202 298.274 415.973 295.383 415.973 295.133C415.973 295.017 415.19 294.688 413.907 294.148C412.38 293.506 410.146 292.566 407.683 291.337C395.536 285.254 371.773 272.839 368.832 270.978C365.941 269.219 365.362 269.068 365.362 270.225C365.362 271.733 362.422 278.72 360.156 282.489C358.952 284.55 356.589 288.27 354.903 290.733L351.914 295.207ZM407.779 314.359C409.161 315.194 406.767 316.42 406.189 316.621C402.783 316.923 398.773 316.255 395.488 314.258C393.77 312.988 380.244 305.152 371.273 299.953C367.171 297.578 364.021 295.752 363.386 295.358C361.361 294.102 359.433 292.744 359.096 292.342C358.084 290.985 359.048 290.382 361.891 290.633C363.601 290.784 404.793 312.554 407.779 314.359ZM211.841 445.958C215.56 445.109 221.331 442.569 225.007 440.952C225.906 440.556 226.678 440.216 227.266 439.969C230.256 438.712 239.364 425.298 242.642 410.167C245.004 399.008 246.209 383.124 244.86 380.46C244.046 378.917 248.88 384.093 252.48 387.947C253.572 389.116 254.55 390.163 255.223 390.865C276.238 412.631 307.521 430.124 340.008 438.317C356.204 442.439 367.724 443.897 383.197 443.897C409.177 443.897 429.663 438.568 448.268 426.856C449.152 426.3 449.98 425.789 450.769 425.301C457.255 421.297 461.119 418.911 471.694 406.498C483.556 392.574 494.107 360.252 497.626 349.093C499.168 344.066 502.929 324.073 502.929 319.084C502.929 313.177 500.952 310.388 498.253 307.523C493.481 302.647 487.022 300.888 481.672 302.999L479.165 304.004L478.394 301.34C477.285 297.318 474.972 294.102 471.405 291.688C466.103 288.019 465.332 287.768 460.56 287.768C456.848 287.768 455.836 287.969 453.474 289.125L450.726 290.432L450.148 288.622C449.039 284.902 445.321 279.717 442.436 278.217C439.877 276.887 435.448 276.765 432.362 277.363C425.613 278.669 420.794 281.936 418.817 286.511C418.239 287.918 417.516 289.025 417.227 289.025C416.986 289.025 407.49 286.259 396.163 281.031C394.252 280.146 392.457 279.316 390.772 278.538C370.431 269.135 366.022 267.097 366.423 264.544C366.76 262.383 366.663 261.176 366.085 259.316C365.073 256.2 363.916 255.346 360.639 255.346C358.036 255.346 358.036 255.346 358.325 253.989C359.867 246.298 359.819 241.874 358.18 239.059C357.072 237.199 355.77 236.445 352.781 235.993C351.046 235.741 350.227 235.892 348.299 236.998C346.998 237.702 345.889 238.204 345.793 238.104C345.696 238.003 346.034 235.239 346.564 231.971C350.516 207.793 347.463 186.961 337.389 164.844C337.292 164.632 337.18 164.382 337.053 164.095C333.99 157.238 321.675 129.667 286.457 115.754C284.863 115.124 283.355 114.515 281.905 113.931C269.908 109.088 261.933 105.868 242.691 105.902C221.122 105.939 213.818 109.119 199.598 115.905C197.623 116.86 195.887 117.413 195.742 117.212C195.598 116.96 194.682 116.358 193.766 115.855C192.851 115.352 190.874 114.096 189.428 113.09C185.282 110.174 182.728 108.968 181.427 109.269C179.933 109.672 179.933 110.979 181.427 111.582C182.053 111.834 182.777 112.688 183.066 113.543C183.692 115.352 184.415 115.553 184.849 114.045C185.042 113.492 185.331 113.09 185.476 113.191C185.53 113.219 185.714 113.309 185.994 113.445C186.699 113.79 188.014 114.432 189.428 115.151C191.404 116.156 193.573 117.212 194.152 117.463C195.212 117.865 194.875 118.167 190.296 120.982C172.413 131.94 157.857 148.981 149.71 168.384C148.457 171.299 147.349 173.108 146.191 174.115C143.251 176.678 137.467 183.966 136.117 186.832C135.395 188.39 133.852 190.803 132.647 192.21C131.49 193.618 130.237 195.427 129.803 196.181C129.418 196.986 129.032 197.538 128.887 197.438C128.791 197.287 128.935 194.824 129.273 191.959C129.996 185.274 129.996 183.514 129.418 183.364C128.55 183.112 127.297 186.631 126.766 191.004C126.381 193.668 126.285 197.689 126.526 201.811L126.815 208.346L123.393 202.565C122.216 200.632 121.057 198.699 120.234 197.327V197.326L120.233 197.325L120.231 197.322L120.23 197.32V197.32L120.229 197.319L120.228 197.316C119.706 196.445 119.319 195.801 119.151 195.528C117.897 193.618 117.174 190.752 117.705 189.798C117.994 189.245 117.946 188.993 117.463 188.993C116.452 188.993 114.475 192.361 113.174 196.232C112.547 198.041 111.92 199.549 111.727 199.549C111.005 199.549 111.342 181.554 112.114 175.773C113.704 164.362 117.897 150.287 119.777 150.287C120.163 150.287 120.5 150.086 120.5 149.785C120.5 148.88 119.247 149.232 118.235 150.389C115.969 152.952 112.981 160.844 111.101 169.238C109.8 175.019 108.981 182.459 108.691 190.551C108.45 197.538 108.547 198.695 109.511 202.515C110.619 206.787 111.487 208.044 112.981 207.441C113.511 207.24 113.752 206.486 113.752 205.078C113.752 203.972 114.33 200.655 115.054 197.689L116.307 192.361L116.837 194.572C117.512 197.137 121.464 205.079 125.031 210.859C127.49 214.78 127.537 215.031 128.357 221.164C128.791 224.632 130.14 233.069 133.273 246.046C136.042 257.513 151.604 268.887 155.49 271.727L155.493 271.729C156.003 272.102 156.312 272.328 156.362 272.386C156.844 272.939 157.519 273.24 157.904 273.09C158.338 272.939 158.579 273.14 158.579 273.693C158.579 274.196 158.917 274.849 159.302 275.15C159.784 275.502 160.122 276.86 160.218 279.222C160.459 283.947 163.833 292.995 166.436 295.961C168.123 297.871 171.642 298.675 175.546 297.972C178.101 297.57 178.824 297.268 178.583 296.665C178.438 296.263 179.354 296.765 180.607 297.771C195.26 309.433 210.106 316.42 226.784 319.436C233.243 320.592 243.943 321.245 249.776 320.793C254.934 320.442 254.934 320.442 254.692 321.497C254.355 322.904 254.789 323.759 261.874 336.275C267.514 346.178 267.996 346.831 274.262 353.517C287.565 367.843 302.074 378.952 318.511 387.548C333.983 395.59 358.686 402.276 381.269 404.387C403.851 406.498 420.07 384.883 420.022 379.354C419.926 371.763 418.914 366.787 416.456 361.962C414.045 357.286 412.455 355.679 405.224 350.651C397.175 345.072 392.211 340.498 388.933 335.622C386.86 332.555 386.089 329.087 386.089 327.227C386.089 326.021 387.583 323.306 389.8 322.753C391.825 322.201 392.211 322.25 394.476 323.407C395.825 324.06 399.344 325.769 402.236 327.227C405.176 328.635 408.02 330.043 408.598 330.344C410.304 330.838 411.025 334.319 411.416 336.206C411.503 336.627 411.574 336.969 411.635 337.18C412.31 339.794 415.504 343.169 417.564 344.318C421.182 346.336 430.097 346.606 432.555 343.841C433.182 343.137 435.26 342.271 435.688 342.534C436.116 342.796 437.664 344.971 437.664 346.731C437.712 349.747 439.206 352.512 442.387 355.276C448.413 360.504 453.089 361.761 457.812 359.448C460.27 358.242 462.285 357.771 462.285 357.771C462.285 357.771 464.294 360.445 464.415 361.358C465.362 368.5 475.501 371.494 478.201 371.796C478.819 371.861 480.024 371.584 481.246 371.304C482.881 370.93 484.55 370.546 484.901 370.959C485.589 371.77 473.381 392.826 471.694 395.489C455.643 420.623 424.408 436.005 386.185 437.614C361.361 438.669 330.85 431.43 304.388 418.261C287.469 409.766 272.479 399.36 256.428 384.783C253.632 382.269 250.402 379.405 249.246 378.399C248.089 377.444 245.341 374.177 243.221 371.161C239.654 366.134 237.629 364.324 237.629 366.033C237.629 366.787 239.943 371.411 242.594 375.986C243.655 377.796 244.329 379.053 244.088 378.852C243.847 378.65 243.076 382.269 242.353 386.894C239.991 401.723 236.086 416.351 232.134 425.449C229.965 430.375 225.806 434.054 224.553 435.059C219.925 438.729 212.999 440.378 203.406 441.383C191.259 442.64 173.377 439.825 159.736 434.497C156.121 433.09 146.818 429.018 146.191 428.566C146.154 428.526 145.941 427.08 145.643 425.062C145.558 424.492 145.468 423.878 145.372 423.237C143.637 410.821 141.227 363.017 141.227 340.899C141.227 331.751 141.13 329.74 140.552 329.74C139.347 329.74 138.865 330.947 138.335 335.27C137.13 345.122 137.371 396.545 138.672 407.352L138.961 409.816L137.322 408.861C134.816 407.352 125.272 397.249 121.946 392.574C119.131 388.577 117.457 383.459 116.205 379.63C115.914 378.739 115.646 377.918 115.391 377.197C108.402 356.99 110.86 334.315 120.5 313.906C128.695 296.514 138.769 286.863 153.518 282.188C155.928 281.434 158.049 280.63 158.29 280.429C159.206 279.524 153.325 279.977 150.096 281.032C139.588 284.399 128.598 293.599 121.127 305.361C110.619 321.849 105.895 346.178 109.221 366.938C109.992 371.864 113.125 382.521 113.993 383.274C114.07 383.355 114.466 384.222 115.066 385.534C116.724 389.161 119.935 396.186 122.235 399.36C125.031 403.331 133.467 411.977 136.985 414.642L139.203 416.3L139.54 420.372C140.167 428.163 140.408 428.867 143.781 431.481C152.217 438.167 168.846 444.399 183.885 446.611C190.874 447.616 206.058 447.264 211.841 445.958ZM374.762 398.757C346.757 396.193 312.919 382.268 288.433 360.755C278.118 351.656 264.718 333.963 259.416 324.161C258.307 322.15 257.488 321.195 256.524 320.944C255.512 320.642 256.379 320.34 260.525 319.637C278.021 316.52 295.036 308.93 308.774 298.123L310.799 296.564L311.377 298.022C312.679 301.289 317.691 304.607 321.403 304.607C322.897 304.607 327.91 302.245 330.947 300.083L333.019 298.626L334.706 300.385C336.249 301.993 336.538 302.094 339.43 302.094C342.756 302.094 346.757 300.536 348.974 298.324L350.178 297.167L353.601 299.53C355.433 300.888 360.542 303.853 364.928 306.215C371.484 309.734 378.425 313.806 385.028 318.028L386.089 318.732L385.076 320.139C384.016 321.648 382.041 324.512 382.041 328.886C382.041 333.812 386.953 342.663 396.355 348.741C403.743 353.517 416.456 362.91 415.973 376.639C415.915 378.298 414.142 382.42 411.78 386.14C410.237 388.502 405.948 392.021 402.043 394.082C395.391 397.551 383.678 399.561 374.762 398.757ZM117.753 173.108C119.055 173.411 119.922 173.863 119.729 174.064C119.102 174.717 115.777 174.416 115.005 173.611C113.8 172.405 114.089 171.55 115.777 171.198C116.644 171.048 117.946 170.294 118.669 169.54C119.392 168.786 120.018 168.434 120.018 168.686C120.018 169.339 117.608 171.651 116.403 172.154C115.632 172.506 115.873 172.656 117.753 173.108ZM136.937 173.913C138.335 173.108 138.045 172.556 136.406 172.807C134.768 173.059 134.672 172.858 135.732 171.149C136.166 170.495 136.406 169.54 136.31 169.037C136.166 168.384 135.828 168.686 135.057 170.294C134.478 171.45 133.659 172.405 133.273 172.405C132.069 172.405 131.972 173.411 133.129 173.863C134.623 174.516 135.78 174.516 136.937 173.913ZM120.26 146.467C119.102 146.668 115.488 148.176 112.306 149.835C109.077 151.444 106.329 152.801 106.136 152.751C101.22 152.198 108.064 143.652 120.5 134.906C132.406 126.512 140.456 122.088 147.927 119.826C152.602 118.418 157.857 118.217 159.351 119.373C160.17 120.027 159.881 120.077 156.314 120.127C148.602 120.127 139.684 124.249 125.176 134.353C117.657 139.581 108.932 147.071 108.932 148.277C108.932 148.528 110.33 148.025 112.065 147.222C115.777 145.462 119.585 144.557 121.271 144.96C123.055 145.462 122.669 146.115 120.26 146.467ZM138.913 150.79C143.444 149.835 143.637 149.785 143.637 149.282C143.637 149.031 141.902 148.78 139.733 148.679L135.828 148.528L139.443 144.256C141.419 141.893 143.733 139.531 144.552 138.978C146.336 137.771 146.433 136.917 144.986 136.414L143.878 136.062L145.083 135.609C145.758 135.359 147.011 135.257 147.879 135.409C149.18 135.609 149.469 135.509 149.324 134.805C149.18 134.102 148.65 133.951 146.288 134.001C139.395 134.102 136.455 136.012 141.853 136.917C143.347 137.168 144.601 137.57 144.601 137.822C144.601 138.023 144.36 138.223 144.071 138.223C143.155 138.223 135.395 146.417 134.431 148.428C132.937 151.394 133.756 151.846 138.913 150.79ZM170.726 131.287C169.328 131.388 168.991 131.638 169.087 132.342L169.102 132.445C169.156 132.816 169.187 133.03 169.107 133.095C168.999 133.182 168.689 132.999 167.96 132.568L167.834 132.493C166.918 131.99 166.822 131.739 167.352 131.337C167.689 131.036 168.605 130.583 169.328 130.432L170.678 130.08L169.666 128.974C169.135 128.321 168.846 127.718 168.991 127.517C169.376 127.115 174.1 127.668 174.775 128.221C175.064 128.471 175.498 128.422 175.787 128.12C176.462 127.416 177.377 127.969 177.377 129.075C177.377 129.678 177.233 129.728 176.799 129.276C176.413 128.874 176.076 128.874 175.642 129.226C175.257 129.578 174.968 129.578 174.727 129.175C174.582 128.924 173.666 128.673 172.703 128.673C171.813 128.673 171.392 128.673 171.306 128.85C171.229 129.008 171.422 129.308 171.786 129.879C172.555 131.132 172.51 131.136 170.743 131.285L170.726 131.287ZM163.399 117.916C163.399 117.262 162.821 116.106 162.098 115.352L160.748 113.945L167.978 114.246C171.979 114.448 176.51 114.9 178.101 115.352C179.691 115.754 181.523 116.056 182.198 116.056C183.21 116.056 183.017 115.855 181.138 114.799C177.86 113.04 173.666 112.186 165.617 111.582C155.976 110.878 151.108 111.834 152.024 114.346C152.168 114.849 152.94 115.101 154.096 115.101C156.458 115.101 160.315 116.559 161.616 117.916C163.014 119.373 163.399 119.373 163.399 117.916ZM139.877 251.023C143.781 256.251 148.939 262.182 151.349 264.192C152.795 265.399 154.049 266.404 154.145 266.404C154.193 266.404 153.132 264.092 151.783 261.277C146.336 249.967 143.155 238.707 141.661 225.739C141.323 222.873 140.793 220.46 140.214 219.455C139.058 217.444 139.058 214.83 140.263 212.367C140.889 211.061 141.227 209.401 141.227 207.592V204.827L138.913 207.34C136.648 209.804 134.478 210.809 134.478 209.301C134.478 208.195 138.045 202.867 139.925 201.208C141.419 199.901 141.612 199.448 142.094 195.528C142.432 193.165 143.203 188.993 143.83 186.228C144.505 183.464 144.89 181.101 144.794 181.001C144.456 180.649 133.129 194.216 131.587 198.544C131.248 199.494 130.334 201.158 129.61 202.163L128.357 203.841C128.357 203.841 128.746 206.191 129.176 209.144C129.611 212.127 129.815 214.178 129.997 216.005C130.24 218.449 130.443 220.491 131.104 223.828C131.876 227.95 132.647 231.519 132.84 231.77C132.984 232.072 133.611 234.384 134.238 236.947C135.587 242.628 137.853 248.258 139.877 251.023ZM335.477 298.575L334.466 297.519C334.466 297.519 351.266 275.259 354.276 267.058C356.573 260.799 357.925 259.023 359.749 259.023C360.77 259.023 361.602 259.266 361.988 259.87C362.663 260.925 363.313 262.232 362.445 266.706C361 273.944 358.782 278.72 352.13 289.025C350.588 291.387 348.612 294.001 347.744 294.906C345.72 296.866 341.165 298.876 338.514 299.329C336.827 299.58 336.345 299.48 335.477 298.575Z" fill="#00160A"/>
<path d="M468.946 347.75C474.944 330.711 474.036 327.081 472.995 326.726C472.995 326.726 470.705 328.083 469.693 330.948C467.814 336.327 461.379 350.402 458.969 352.915C456.125 355.881 456.125 355.881 453.233 355.881C450.341 355.881 442 351.339 440.864 346.862C439.048 339.698 446.87 314.813 447.063 313.406L445.762 312.45C444.894 313.305 433.609 348.994 418.77 339.695C417.07 338.63 413.467 333.613 413.178 330.948C411.572 323.207 418.941 296.139 420.194 290.579C421.316 285.602 427.156 280.983 434.338 280.983C445.376 280.983 443.893 291.045 448.838 294.591C451.029 296.162 454.63 293.314 455.739 293.097C461.957 291.891 464.34 293.296 468.899 297.068C472.417 299.981 475.02 305.744 477.886 307.775C479.478 308.903 481.167 307.362 481.72 307.072C483.988 305.884 488.854 306.77 490.203 307.775C492.182 308.675 497.031 313.536 497.796 316.362C501.268 329.174 490.306 357.579 486.167 362.907C479.318 371.727 462.95 364.789 468.946 347.75Z" fill="white"/>
<path fill-rule="evenodd" clip-rule="evenodd" d="M191.838 301.061C205.045 309.758 218.664 315.438 234.185 316.996C246.428 318.203 262.935 316.544 274.792 312.522C284.77 309.155 298.266 299.825 307.28 291.933C324.777 276.652 335.815 252.782 340.635 227.448C341.31 223.879 342.339 214.908 342.291 206.011C342.291 195.656 337.921 167.359 324.681 151.043C297.372 117.39 252.483 102.231 214.757 115.184C201.148 119.856 186.658 128.322 175.716 139.38C161.93 153.405 151.76 172.507 147.712 192.01C143.47 212.62 148.988 237.25 158.579 257.458C166.243 273.543 178.872 292.466 191.838 301.061ZM320.535 240.317C311.473 268.717 287.855 289.93 258.163 296.364C253.632 297.319 250.499 297.671 244.136 297.771C239.654 297.922 235.171 297.872 234.255 297.771C213.48 295.157 197.67 287.165 183.114 271.984C176.751 265.299 174.052 261.68 170.1 254.542C163.881 243.232 160.556 231.67 159.543 217.746C156.073 170.044 188.801 130.282 234.882 126.16C252.957 124.552 273.009 130.332 288.24 141.592C293.88 145.764 304.099 156.32 307.28 161.246C308.582 163.207 321.21 182.459 323.428 193.518C326.271 207.895 325.163 225.89 320.535 240.317Z" fill="white"/>
<path fill-rule="evenodd" clip-rule="evenodd" d="M342.308 206.009C342.308 239.749 327.004 276.636 307.253 292.389C297.83 299.905 285.516 309.005 274.792 312.522C259.076 317.674 234.184 316.995 234.184 316.995C234.184 316.995 259.579 313.455 268.99 309.505C295.977 298.179 310.709 280.793 319.806 264.111C337.763 231.182 342.308 205.19 342.308 206.009Z" fill="#E7EAEE"/>
<path fill-rule="evenodd" clip-rule="evenodd" d="M234.737 291.739C221.868 290.03 209.094 285.254 198.779 278.167C192.658 273.995 183.403 264.193 178.92 257.206C172.51 247.153 168.268 236.395 166.195 224.834C164.701 216.439 164.749 203.521 166.243 196.031C167.786 188.391 169.762 182.559 173.28 175.17C177.378 166.625 181.716 160.342 188.223 153.555C199.309 141.994 212.179 134.655 227.507 131.136C232.472 130.03 250.451 129.126 251.077 129.981C251.222 130.231 252.186 130.885 253.198 131.438C254.21 132.041 256.91 134.153 259.127 136.213C262.453 139.23 263.947 141.14 266.839 145.865C268.816 149.082 270.406 151.997 270.406 152.249C270.406 152.802 271.949 153.807 272.816 153.807C274.021 153.807 274.841 150.037 275.082 143.402C275.226 139.732 275.516 136.716 275.708 136.716C276.383 136.716 283.806 140.989 287.276 143.402C294.073 148.127 300.869 154.762 305.882 161.699C308.148 164.815 308.485 165.619 308.485 167.529C308.485 169.289 308.967 170.646 310.461 173.361C314.221 180.197 317.161 188.792 318.945 198.293C320.101 204.677 320.101 216.741 318.896 223.427C315.619 241.824 305.882 260.121 293.206 271.733C282.457 281.535 271.033 287.567 257.537 290.533C252.909 291.588 239.027 292.292 234.737 291.739ZM200.273 257.356C200.707 256.854 200.997 256.1 200.852 255.748C200.809 255.643 200.205 255.347 199.321 254.914C197.262 253.904 193.682 252.149 192.13 250.32C185.96 242.981 183.695 237.501 182.297 226.191C180.947 215.183 182.081 207.741 184.514 195.779C185.701 189.945 188.856 185.125 190.818 182.127C192.153 180.088 192.936 178.891 192.176 178.79C190.295 178.488 190.007 178.639 188.03 180.599C183.788 184.821 181.86 188.189 179.836 194.674C176.703 204.828 176.098 232.269 182.297 244.639C188.497 257.01 199.164 258.664 200.273 257.356ZM268.816 215.132C267.997 222.941 264.525 234.234 260.477 239.16C258.597 241.472 251.696 245.444 245.871 244.639C240.245 243.862 235.846 241.12 232.086 235.239C228.856 230.162 227.189 224 226.061 216.238C224.114 202.836 232.617 187.234 236.28 183.364C239.991 179.392 242.642 177.985 246.016 177.935C249.294 177.935 251.415 178.689 254.741 181.152C260.814 185.576 270.406 199.958 268.816 215.132ZM203.84 173.562C204.804 172.405 204.949 171.853 204.66 169.691C204.467 167.68 204.081 166.876 203.069 166.022C201.286 164.514 199.068 164.514 197.43 166.122C196.273 167.279 196.128 167.68 196.273 170.445C196.417 173.411 196.514 173.612 198.104 174.516C200.225 175.723 202.298 175.371 203.84 173.562ZM233.918 142.547C225.242 149.031 221.482 151.695 217.578 154.209C214.493 156.219 213.529 156.27 213.529 154.46C213.529 153.505 214.204 152.45 215.939 150.79L218.349 148.479L213.674 147.825C208.419 147.121 203.31 145.613 202.201 144.457C200.37 142.497 201.961 142.044 207.166 143.05C209.48 143.451 213.963 143.954 217.144 144.055L222.928 144.306L227.121 141.14C236.327 134.202 245.871 130.282 250.451 131.488C253.295 132.192 252.957 132.996 249.728 133.398C246.016 133.85 243.751 135.158 233.918 142.547Z" fill="white"/>
<path d="M246.305 237.753C246.305 237.501 246.594 237.25 246.98 237.25C247.365 237.25 247.848 237.501 247.992 237.753C248.137 238.054 247.848 238.256 247.318 238.256C246.739 238.256 246.305 238.054 246.305 237.753Z" fill="white"/>
<path d="M249.198 237.299C249.198 236.746 250.402 236.244 251.752 236.244C252.812 236.293 252.812 236.293 251.897 236.997C250.836 237.851 249.198 238.003 249.198 237.299Z" fill="white"/>
<path d="M241.727 235.993C241.582 235.591 241.389 234.887 241.244 234.485C241.099 233.982 241.341 233.731 241.967 233.731C242.497 233.731 242.931 234.032 242.931 234.435C242.931 234.837 243.076 235.49 243.221 235.942C243.413 236.496 243.268 236.747 242.738 236.747C242.305 236.747 241.823 236.395 241.727 235.993Z" fill="white"/>
<path d="M244.281 234.735C244.04 233.227 244.57 232.724 246.305 232.724C246.835 232.724 247.269 233.227 247.463 234.081C247.848 235.539 247.221 236.243 245.534 236.243C244.763 236.243 244.426 235.891 244.281 234.735Z" fill="white"/>
<path d="M239.364 234.987C238.449 234.232 238.449 234.232 239.46 234.232C240.088 234.232 240.522 234.534 240.522 234.987C240.522 235.892 240.522 235.892 239.364 234.987Z" fill="white"/>
<path d="M249.053 234.935C248.427 234.282 248.715 232.322 249.487 232.02C250.885 231.467 251.511 231.719 251.801 233.025C251.993 233.78 252.09 234.433 251.993 234.483C251.607 234.935 249.342 235.238 249.053 234.935Z" fill="white"/>
<path d="M253.343 233.883C253.198 233.732 253.054 233.079 253.054 232.476C253.054 231.621 253.44 231.269 254.596 231.018C255.609 230.817 256.235 230.917 256.524 231.319C257.006 232.124 257.006 233.129 256.573 233.38C255.705 233.883 253.68 234.185 253.343 233.883Z" fill="white"/>
<path d="M237.147 232.324C237.147 231.72 237.581 231.218 238.208 231.067C239.461 230.715 239.413 230.664 239.654 231.972C239.75 232.725 239.509 233.028 238.497 233.128C237.436 233.278 237.147 233.077 237.147 232.324Z" fill="white"/>
<path d="M240.81 232.373C240.135 231.619 240.569 230.211 241.485 230.211C242.112 230.211 242.449 230.563 242.449 231.167C242.449 232.122 241.341 232.926 240.81 232.373Z" fill="white"/>
<path d="M243.702 230.867C243.317 229.911 244.136 229.208 245.727 229.208C246.45 229.208 246.788 229.51 246.788 230.163C246.788 230.716 246.354 231.219 245.727 231.42C244.136 231.822 244.04 231.821 243.702 230.867Z" fill="white"/>
<path d="M257.633 230.714C257.777 230.463 258.018 230.211 258.163 230.211C258.308 230.211 258.259 230.463 258.114 230.714C257.97 231.016 257.729 231.217 257.584 231.217C257.44 231.217 257.488 231.016 257.633 230.714Z" fill="white"/>
<path d="M248.04 229.86C247.655 228.855 248.137 228.352 249.679 228.1C250.547 228 250.933 228.201 251.029 228.905C251.367 230.564 248.619 231.469 248.04 229.86Z" fill="white"/>
<path d="M236.472 229.007C236.039 227.348 236.135 227.197 237.389 227.197C238.063 227.197 238.593 227.399 238.593 227.649C238.593 227.901 238.738 228.454 238.883 228.856C239.027 229.359 238.738 229.661 237.919 229.811C237.003 230.012 236.665 229.811 236.472 229.007Z" fill="white"/>
<path d="M252.571 228.452C252.571 227.547 252.909 227.145 253.825 226.893C255.174 226.541 255.945 227.245 255.945 228.854C255.945 229.507 255.56 229.708 254.259 229.708C252.764 229.708 252.571 229.558 252.571 228.452Z" fill="white"/>
<path d="M235.026 228.453C234.882 228.051 234.978 227.699 235.219 227.699C235.508 227.699 235.701 228.051 235.701 228.453C235.701 228.856 235.605 229.208 235.508 229.208C235.412 229.208 235.219 228.856 235.026 228.453Z" fill="white"/>
<path d="M239.894 228.856C239.22 228.202 239.605 226.794 240.473 226.543C241.003 226.393 241.533 226.442 241.678 226.594C242.257 227.146 241.919 228.604 241.196 228.905C240.28 229.257 240.28 229.257 239.894 228.856Z" fill="white"/>
<path d="M257.103 228.504C256.572 227.046 257.151 225.94 258.501 225.79C259.512 225.639 259.802 225.84 259.802 226.644C259.802 228.303 259.272 229.207 258.307 229.207C257.777 229.207 257.247 228.906 257.103 228.504Z" fill="white"/>
<path d="M243.269 227.849C242.691 227.297 242.883 226.291 243.702 225.99C244.619 225.638 246.546 226.643 246.016 227.196C245.341 227.8 243.606 228.252 243.269 227.849Z" fill="white"/>
<path d="M247.462 226.592C247.028 225.888 248.571 224.682 249.824 224.682C250.402 224.682 250.643 224.983 250.547 225.536C250.354 226.541 247.896 227.346 247.462 226.592Z" fill="white"/>
<path d="M234.255 226.241C234.255 225.989 234.111 225.436 233.966 224.984C233.821 224.532 233.869 224.18 234.158 224.18C234.785 224.18 235.267 226.09 234.689 226.492C234.448 226.643 234.255 226.542 234.255 226.241Z" fill="white"/>
<path d="M235.556 225.086C235.267 223.98 235.846 223.176 236.955 223.176C237.581 223.176 238.208 225.137 237.822 225.79C237.291 226.645 235.797 226.142 235.556 225.086Z" fill="white"/>
<path d="M238.93 225.335C238.208 224.581 238.641 222.772 239.605 222.52C240.328 222.319 240.714 222.57 241.099 223.475C241.388 224.129 241.533 224.782 241.437 224.883C240.955 225.335 239.219 225.687 238.93 225.335Z" fill="white"/>
<path d="M251.945 225.337C251.318 224.683 251.607 224.281 253.054 223.728C254.259 223.326 254.596 223.376 254.837 223.979C255.271 225.186 252.861 226.342 251.945 225.337Z" fill="white"/>
<path d="M256.187 224.179C255.704 223.375 256.379 222.671 257.632 222.671C259.127 222.671 259.561 223.978 258.211 224.381C256.765 224.782 256.524 224.733 256.187 224.179Z" fill="white"/>
<path d="M260.284 222.974C260.284 222.22 261.151 221.415 261.537 221.817C261.875 222.169 261.2 223.677 260.717 223.677C260.476 223.677 260.284 223.375 260.284 222.974Z" fill="white"/>
<path d="M233.628 222.321C233.436 222.17 233.291 221.517 233.339 220.964C233.339 220.008 233.387 220.008 233.821 221.115C234.303 222.321 234.207 222.924 233.628 222.321Z" fill="white"/>
<path d="M234.544 221.567C234.111 219.808 234.158 219.657 235.412 219.657C236.81 219.657 237.677 221.517 236.617 222.221C235.508 222.925 234.882 222.724 234.544 221.567Z" fill="white"/>
<path d="M251.126 222.572C251.126 222.421 251.366 221.617 251.656 220.712C252.33 218.701 253.825 218.601 254.162 220.561C254.307 221.315 254.355 221.969 254.307 222.019C254.065 222.32 251.126 222.773 251.126 222.572Z" fill="white"/>
<path d="M237.966 221.317C237.774 221.166 237.629 220.562 237.629 220.009C237.629 219.205 237.774 219.155 238.352 219.657C238.738 220.009 239.075 220.613 239.075 220.965C239.075 221.718 238.497 221.919 237.966 221.317Z" fill="white"/>
<path d="M255.319 220.31C255.03 218.752 255.656 218.048 257.151 218.249C257.873 218.349 258.114 218.801 258.114 219.908C258.114 221.165 257.922 221.466 256.862 221.566C255.801 221.718 255.56 221.466 255.319 220.31Z" fill="white"/>
<path d="M260.042 220.511C259.416 218.499 259.609 217.897 260.91 217.746C262.067 217.595 262.211 217.746 262.211 219.053C262.211 220.159 261.922 220.611 261.199 220.812C260.669 220.963 260.139 220.812 260.042 220.511Z" fill="white"/>
<path d="M232.906 217.645C232.906 216.69 233.002 216.288 233.147 216.79C233.243 217.242 233.243 218.047 233.147 218.55C233.002 219.002 232.906 218.6 232.906 217.645Z" fill="white"/>
<path d="M234.111 218.3C233.484 217.696 233.773 215.737 234.545 215.434C235.653 214.982 236.183 215.535 236.183 217.194C236.183 218.249 235.942 218.652 235.316 218.652C234.833 218.652 234.255 218.501 234.111 218.3Z" fill="white"/>
<path d="M237.002 216.941C236.81 216.187 236.714 215.383 236.906 215.232C237.388 214.73 237.677 215.534 237.533 216.992L237.388 218.399L237.002 216.941Z" fill="white"/>
<path d="M252.571 216.592C252.571 216.038 252.812 215.737 253.054 215.888C253.343 216.038 253.535 216.541 253.535 216.943C253.535 217.345 253.343 217.647 253.054 217.647C252.812 217.647 252.571 217.194 252.571 216.592Z" fill="white"/>
<path d="M254.74 217.245C254.066 216.49 254.596 215.133 255.704 214.832C257.103 214.48 257.15 214.48 257.584 215.937C257.873 216.842 257.681 217.044 256.428 217.245C255.656 217.395 254.885 217.345 254.74 217.245Z" fill="white"/>
<path d="M259.175 216.289C258.645 215.786 258.789 214.127 259.32 214.127C259.609 214.127 259.801 213.926 259.801 213.624C259.801 213.373 259.512 213.122 259.127 213.122C258.307 213.122 257.633 210.659 258.307 209.955C259.175 209.05 260.139 210.005 260.717 212.468C261.055 213.775 261.392 215.283 261.536 215.786C261.73 216.439 261.536 216.641 260.621 216.641C259.995 216.641 259.32 216.49 259.175 216.289Z" fill="white"/>
<path d="M261.778 213.626C261.441 212.117 260.573 209.102 259.946 206.889C258.982 203.673 258.886 202.868 259.416 202.516C259.753 202.265 260.187 202.064 260.332 202.064C260.862 202.064 262.79 212.369 262.597 214.379L262.453 216.39L261.778 213.626Z" fill="white"/>
<path d="M232.423 213.373C232.423 212.569 232.52 212.268 232.664 212.77C232.761 213.222 232.761 213.926 232.664 214.278C232.52 214.579 232.423 214.227 232.423 213.373Z" fill="white"/>
<path d="M233.387 213.271C233.58 211.512 234.978 211.109 235.363 212.718C235.701 214.024 235.797 213.874 234.351 214.376C233.339 214.678 233.243 214.578 233.387 213.271Z" fill="white"/>
<path d="M253.729 212.818C253.343 211.36 254.162 210.506 255.704 210.707C256.862 210.858 257.295 213.019 256.331 213.673C255.126 214.477 254.018 214.126 253.729 212.818Z" fill="white"/>
<path d="M236.183 212.417C236.183 211.562 236.424 211.11 236.954 211.11C237.436 211.11 237.629 211.462 237.533 212.215C237.291 213.824 236.183 213.975 236.183 212.417Z" fill="white"/>
<path d="M231.893 210.306C231.893 209.753 232.038 209.603 232.183 210.005C232.327 210.357 232.279 210.809 232.134 210.96C231.989 211.161 231.845 210.859 231.893 210.306Z" fill="white"/>
<path d="M232.809 210.155C232.809 209.401 233.098 209.099 233.822 209.099C234.496 209.099 234.737 209.351 234.641 209.954C234.4 211.261 232.809 211.412 232.809 210.155Z" fill="white"/>
<path d="M235.46 209.704C235.123 208.799 235.123 208.799 236.569 208.396C237.436 208.095 237.629 208.246 237.629 209C237.629 210.206 235.894 210.809 235.46 209.704Z" fill="white"/>
<path d="M252.909 208.999C252.571 207.742 253.198 207.089 254.885 207.089C255.704 207.089 255.945 207.39 255.945 208.345C255.945 209.099 255.656 209.602 255.27 209.602C254.885 209.602 254.259 209.753 253.873 209.904C253.439 210.055 253.101 209.753 252.909 208.999Z" fill="white"/>
<path d="M257.103 207.844C256.717 206.839 257.295 206.085 258.404 206.085C259.079 206.085 259.32 206.437 259.32 207.342C259.32 208.247 259.079 208.598 258.356 208.598C257.826 208.598 257.247 208.247 257.103 207.844Z" fill="white"/>
<path d="M232.327 207.139C232.327 206.083 233.436 204.877 233.918 205.43C234.111 205.581 234.256 206.284 234.256 206.938C234.256 207.742 233.966 208.094 233.291 208.094C232.664 208.094 232.327 207.742 232.327 207.139Z" fill="white"/>
<path d="M234.978 206.535C234.592 205.279 235.026 204.725 236.665 204.475C238.16 204.273 238.641 205.932 237.34 206.938C236.087 207.892 235.316 207.742 234.978 206.535Z" fill="white"/>
<path d="M252.427 206.235C252.09 205.934 251.945 204.074 252.234 204.074C252.282 204.074 253.006 203.873 253.873 203.621C255.319 203.169 255.415 203.22 255.367 204.577C255.319 205.582 255.03 206.085 254.307 206.286C253.006 206.638 252.812 206.638 252.427 206.235Z" fill="white"/>
<path d="M250.643 205.077C250.643 204.726 250.788 204.575 250.981 204.726C251.126 204.927 251.126 205.228 250.981 205.429C250.788 205.58 250.643 205.429 250.643 205.077Z" fill="white"/>
<path d="M256.042 204.273C256.187 203.419 257.681 202.162 258.018 202.564C258.163 202.715 258.403 203.318 258.548 203.972C258.886 204.977 258.741 205.077 257.392 205.077C256.234 205.077 255.898 204.876 256.042 204.273Z" fill="white"/>
<path d="M232.809 204.224C232.809 203.972 233.05 203.47 233.291 203.068C233.677 202.465 233.773 202.515 233.773 203.47C233.773 204.074 233.581 204.576 233.291 204.576C233.05 204.576 232.809 204.425 232.809 204.224Z" fill="white"/>
<path d="M234.255 203.117C234.255 201.71 235.267 201.257 236.039 202.313C236.52 203.067 236.52 203.318 236.039 203.67C235.026 204.324 234.255 204.123 234.255 203.117Z" fill="white"/>
<path d="M248.908 202.466C248.04 201.46 248.04 201.411 248.86 201.712C249.342 201.913 249.968 202.064 250.209 202.064C250.451 202.064 250.643 202.416 250.643 202.818C250.643 203.874 249.968 203.773 248.908 202.466Z" fill="white"/>
<path d="M238.545 202.414C236.472 200.756 236.183 197.036 238.111 197.036C239.413 197.036 240.618 199.147 240.425 201.108C240.28 202.917 239.702 203.319 238.545 202.414Z" fill="white"/>
<path d="M251.752 202.715C251.945 202.565 252.234 202.565 252.427 202.715C252.571 202.915 252.427 203.066 252.09 203.066C251.752 203.066 251.607 202.915 251.752 202.715Z" fill="white"/>
<path d="M259.031 200.755C259.175 200.303 259.32 199.85 259.32 199.75C259.32 199.649 259.561 199.549 259.802 199.549C260.091 199.549 260.284 200.001 260.284 200.554C260.284 201.157 259.946 201.559 259.512 201.559C258.982 201.559 258.838 201.308 259.031 200.755Z" fill="white"/>
<path d="M233.773 200.604C233.773 199.448 234.786 197.538 235.364 197.538C236.376 197.538 235.653 200.755 234.592 200.956C234.158 201.056 233.773 200.906 233.773 200.604Z" fill="white"/>
<path d="M244.619 200.051L243.172 199.699L244.474 199.347C245.824 198.945 246.788 199.247 246.788 200.102C246.788 200.604 246.739 200.604 244.619 200.051Z" fill="white"/>
<path d="M242.931 197.638C242.931 195.577 244.04 195.276 245.052 197.085C245.727 198.291 245.775 198.543 245.149 198.543C244.763 198.543 244.136 198.694 243.702 198.844C243.124 199.096 242.931 198.794 242.931 197.638Z" fill="white"/>
<path d="M251.318 198.342C249.149 197.337 247.751 194.673 247.751 191.506C247.751 189.244 247.944 188.691 249.246 187.434C250.065 186.63 250.884 185.977 251.126 185.977C252.186 185.977 256.09 189.847 257.392 192.26L258.886 195.025L257.295 196.784C255.464 198.794 253.44 199.348 251.318 198.342Z" fill="white"/>
<path d="M241.244 197.037C241.099 196.785 241.196 196.534 241.437 196.534C241.726 196.534 241.967 196.785 241.967 197.037C241.967 197.338 241.871 197.54 241.774 197.54C241.63 197.54 241.389 197.338 241.244 197.037Z" fill="white"/>
<path d="M234.93 196.232C235.075 195.779 235.219 195.327 235.219 195.227C235.219 195.126 235.653 195.026 236.183 195.026C237.388 195.026 237.436 195.83 236.231 196.534C234.93 197.237 234.592 197.187 234.93 196.232Z" fill="white"/>
<path d="M238.738 195.628C237.629 195.478 237.291 194.825 238.015 194.372C238.208 194.221 239.075 193.97 239.943 193.769C241.244 193.467 241.485 193.568 241.485 194.422C241.485 195.478 240.473 195.93 238.738 195.628Z" fill="white"/>
<path d="M242.449 193.92C242.449 193.317 242.498 192.965 242.594 193.066C242.642 193.166 243.028 193.668 243.366 194.171C243.944 194.875 243.896 195.026 243.221 195.026C242.738 195.026 242.449 194.624 242.449 193.92Z" fill="white"/>
<path d="M235.701 193.568C235.701 193.267 235.942 192.915 236.183 192.764C236.472 192.613 236.665 192.814 236.665 193.216C236.665 193.668 236.472 194.02 236.183 194.02C235.942 194.02 235.701 193.819 235.701 193.568Z" fill="white"/>
<path d="M237.485 192.812C237.099 191.807 240.521 190.701 241.099 191.655C241.533 192.46 241.099 192.812 239.268 193.214C238.159 193.465 237.678 193.365 237.485 192.812Z" fill="white"/>
<path d="M242.016 191.205C242.016 190.652 242.161 190.501 242.305 190.903C242.449 191.255 242.401 191.708 242.257 191.858C242.112 192.06 241.967 191.758 242.016 191.205Z" fill="white"/>
<path d="M237.919 190.401C238.497 189.295 240.184 187.485 240.618 187.485C241.1 187.485 241.148 189.847 240.666 190.15C240.425 190.25 239.654 190.502 238.93 190.702C237.87 190.954 237.629 190.903 237.919 190.401Z" fill="white"/>
<path d="M241.774 189.244C241.244 187.737 241.485 187.082 242.642 186.882C243.847 186.63 243.847 186.63 243.076 188.189C242.112 190.199 242.16 190.199 241.774 189.244Z" fill="white"/>
<path d="M241.485 186.229C241.485 186.128 242.449 185.425 243.654 184.721C245.1 183.816 246.113 183.515 246.835 183.715C247.703 184.017 247.462 184.218 245.341 185.274C242.98 186.379 241.485 186.782 241.485 186.229Z" fill="white"/>
<path d="M268.237 141.693C266.936 139.732 264.188 136.566 262.211 134.656C260.236 132.745 258.934 131.187 259.32 131.187C260.38 131.187 268.478 133.499 270.502 134.404C272.189 135.158 272.238 135.259 271.804 136.817C271.563 137.722 271.37 139.984 271.37 141.843C271.37 143.753 271.225 145.262 271.032 145.262C270.791 145.262 269.586 143.653 268.237 141.693Z" fill="white"/>
<path d="M170.147 293.95C168.171 292.895 167.737 292.291 165.231 287.114C161.616 279.775 161.52 278.066 164.942 282.238C166.291 283.896 169.425 287.315 171.883 289.828C176.076 294.05 176.269 294.352 174.871 294.151C173.859 294 173.473 294.101 173.714 294.503C174.293 295.407 172.461 295.157 170.147 293.95Z" fill="white"/>
<path fill-rule="evenodd" clip-rule="evenodd" d="M250.927 385.533C250.527 384.542 250.973 383.401 251.923 382.984L252.962 382.525C263.058 378.019 268.854 375.313 272.792 371.015C276.729 366.718 277.2 360.406 277.94 356.565C278.143 355.511 280.432 357.362 281.443 357.574C282.454 357.786 283.108 358.812 282.905 359.866C282.015 364.484 279.62 368.886 275.764 373.065C271.921 377.23 264.48 381.695 253.372 386.572C252.421 386.99 251.327 386.524 250.927 385.533Z" fill="#00160A"/>
<path fill-rule="evenodd" clip-rule="evenodd" d="M296.586 184.968C297.472 184.417 298.617 184.721 299.145 185.644C304.425 194.894 307.253 205.468 307.253 216.469C307.253 249.798 281.346 276.816 249.387 276.816C240.894 276.816 232.658 274.906 225.116 271.266C224.18 270.815 220.645 267.22 224.205 268.682C227.765 270.144 241.538 273.426 249.486 273.426C279.383 273.426 300.533 247.647 300.533 216.469C300.533 206.174 296.586 197.036 295.937 187.636C295.861 186.546 295.7 185.517 296.586 184.968Z" fill="#00160A"/>
<path fill-rule="evenodd" clip-rule="evenodd" d="M111.716 332.301C112.375 331.474 113.552 329.806 114.345 330.493C117.594 333.316 121.062 336.586 124.771 337.218C128.631 337.875 133.211 337.875 138.503 337.206C139.527 337.078 140.456 337.838 140.58 338.905C140.704 339.973 139.975 340.942 138.952 341.072C133.331 341.781 128.406 341.781 124.17 341.061C119.783 340.314 115.704 338.299 111.955 335.042C111.163 334.354 111.056 333.127 111.716 332.301Z" fill="#00160A"/>
<path d="M151.349 264.193C148.939 262.182 143.781 256.251 139.877 251.023C137.853 248.258 135.587 242.629 134.237 236.948C133.611 234.385 132.984 232.072 132.84 231.771C132.647 231.519 131.876 227.951 131.104 223.828C129.948 217.998 130.193 216.119 129.176 209.144C128.746 206.191 128.357 203.842 128.357 203.842L129.61 202.164C130.333 201.158 131.248 199.494 131.587 198.544C133.129 194.216 144.456 180.649 144.794 181.001C144.89 181.101 144.505 183.464 143.83 186.229C143.203 188.993 142.432 193.165 142.094 195.528C141.612 199.449 141.419 199.902 139.925 201.208C138.045 202.868 134.478 208.195 134.478 209.302C134.478 210.809 136.648 209.804 138.913 207.341L141.227 204.827V207.592C141.227 209.402 140.889 211.061 140.263 212.367C139.058 214.831 139.058 217.445 140.214 219.455C140.793 220.461 141.323 222.873 141.661 225.739C143.155 238.707 146.336 249.968 151.783 261.278C153.132 264.093 154.193 266.404 154.145 266.404C154.049 266.404 152.795 265.399 151.349 264.193Z" fill="white"/>
<path fill-rule="evenodd" clip-rule="evenodd" d="M351.914 295.208L355.384 296.817C356.104 297.163 364.043 301.141 373.579 305.919C388.954 313.624 408.48 323.408 408.599 323.408C408.792 323.408 409.696 321.226 409.9 318.683C410.382 313.204 412.165 305.764 414.238 300.586C415.202 298.275 415.973 295.384 415.973 295.133C415.973 295.018 415.19 294.689 413.907 294.149C412.38 293.507 410.146 292.567 407.683 291.337C395.536 285.255 371.773 272.839 368.833 270.979C365.941 269.22 365.362 269.069 365.362 270.225C365.362 271.734 362.422 278.721 360.156 282.49C358.952 284.551 356.589 288.271 354.903 290.734L351.914 295.208ZM407.779 314.359C409.162 315.195 406.767 316.421 406.189 316.621C402.783 316.924 398.773 316.255 395.488 314.259C393.77 312.989 380.245 305.152 371.273 299.954C367.171 297.578 364.021 295.753 363.386 295.358C361.361 294.102 359.434 292.745 359.096 292.343C358.084 290.985 359.048 290.383 361.892 290.633C363.601 290.785 404.794 312.555 407.779 314.359Z" fill="white"/>
<path d="M317.306 299.732C316.053 299.28 314.703 298.274 313.835 297.118L312.389 295.258L317.498 289.98C325.356 281.937 331.139 273.148 336.345 263.346C338.08 260.079 343.238 246.901 343.865 245.444C344.829 243.333 345.551 242.528 347.624 241.321C350.083 239.814 352.878 239.311 354.084 240.166C356.397 241.774 356.397 246.851 354.084 255.597C351.528 265.198 348.106 272.085 341.021 281.988C339.912 283.495 337.84 286.461 336.345 288.522C332.344 294.052 329.741 296.716 326.223 298.777C322.753 300.787 320.728 301.039 317.306 299.732Z" fill="white"/>
<path d="M335.477 298.573L334.465 297.518C334.465 297.518 351.266 275.259 354.275 267.056C356.573 260.797 357.925 259.022 359.749 259.022C360.769 259.022 361.602 259.265 361.988 259.868C362.663 260.924 363.313 262.231 362.445 266.704C360.999 273.943 358.782 278.718 352.13 289.023C350.588 291.386 348.612 294 347.744 294.904C345.719 296.865 341.165 298.876 338.514 299.328C336.827 299.579 336.345 299.478 335.477 298.573Z" fill="white"/>
<path fill-rule="evenodd" clip-rule="evenodd" d="M363.697 275.299C364.669 272.98 365.362 270.957 365.362 270.225C365.362 269.069 365.941 269.22 368.832 270.979C371.773 272.839 395.536 285.255 407.683 291.337C412.214 293.599 415.973 294.882 415.973 295.133C415.973 295.384 362.666 277.758 363.697 275.299Z" fill="#E7EAEE"/>
<path fill-rule="evenodd" clip-rule="evenodd" d="M198.779 278.165C192.657 273.993 183.402 264.191 178.92 257.204C172.509 247.15 168.267 236.394 166.195 224.832C164.701 216.437 164.749 203.519 166.243 196.029C167.786 188.388 169.761 182.558 173.28 175.168C177.377 166.623 181.716 160.34 188.223 153.554C194.604 146.899 166.243 174.419 173.28 223.657C178.92 264.919 203.157 281.173 198.779 278.165Z" fill="#E7EAEE"/>
</g>
<defs>
<clipPath id="clip0_87_364">
<rect width="560" height="584" fill="white"/>
</clipPath>
</defs>
</svg>
