<svg width="60" height="60" viewBox="0 0 60 60" fill="none" xmlns="http://www.w3.org/2000/svg">
<path d="M54 0H18C14.7 0 12 2.7 12 6V42C12 45.3 14.7 48 18 48H54C57.3 48 60 45.3 60 42V6C60 2.7 57.3 0 54 0ZM29.28 33.84L23.07 27.6C21.93 26.43 21.93 24.57 23.07 23.4C23.3475 23.1219 23.6772 22.9012 24.0401 22.7507C24.403 22.6002 24.7921 22.5227 25.185 22.5227C25.5779 22.5227 25.967 22.6002 26.3299 22.7507C26.6928 22.9012 27.0225 23.1219 27.3 23.4L31.38 27.51L44.64 14.13C44.9175 13.8519 45.2472 13.6312 45.6101 13.4807C45.973 13.3302 46.3621 13.2527 46.755 13.2527C47.1479 13.2527 47.537 13.3302 47.8999 13.4807C48.2628 13.6312 48.5925 13.8519 48.87 14.13C50.01 15.3 50.01 17.16 48.87 18.33L33.48 33.84C32.37 35.04 30.45 35.04 29.28 33.84ZM3 12C1.35 12 0 13.35 0 15V54C0 57.3 2.7 60 6 60H45C46.65 60 48 58.65 48 57C48 55.35 46.65 54 45 54H9C7.35 54 6 52.65 6 51V15C6 13.35 4.65 12 3 12Z" fill="white"/>
</svg>
